# xmcd CD Database Entry
#
# Track frame offsets:
# 150
# 17640
# 33642
# 49320
# 71520
# 94390
# 118745
# 131140
# 149550
# 165412
#
# Disc length: 2504 seconds
#
# Revision: 3
# Processed by: cddbd v1.4b41PL1 Copyright (c) Steve Scherf et al.
# Submitted via: tcd 2.0b
#
DISCID=9409c60a
DTITLE=Ray Brown and John Clayton - Super Bass
DYEAR=1900
DGENRE=
TTITLE0=One Armed Bandit
TTITLE1=Bag's Groove
TTITLE2=Swing Jig
TTITLE3=Killer Joe
TTITLE4=Medley
TTITLE5=Righteous Boogie Bass
TTITLE6=Hues
TTITLE7=Goodbye Freedie Green
TTITLE8=Five O'Clock Whistle
TTITLE9=Happy Days Are Here Again
EXTD=
EXTT0=
EXTT1=
EXTT2=
EXTT3=
EXTT4=
EXTT5=
EXTT6=
EXTT7=
EXTT8=
EXTT9=
PLAYORDER=
